<svg width="67" height="67" viewBox="0 0 143 67" fill="none" xmlns="http://www.w3.org/2000/svg">
<g clip-path="url(#clip0_269_1672)">
<path d="M0 0H142.898V67H0V0Z" fill="white"/>
<path d="M23.876 10.619C24.2858 10.573 25.6495 11.0503 26.1187 11.1975C27.3637 11.5912 28.6108 11.9781 29.86 12.3584C33.6129 13.5012 37.491 14.4422 41.1732 15.7923C41.4443 15.8916 41.6771 16.0054 41.862 16.2354C42.8411 17.4527 41.7409 27.7111 41.4993 29.974C40.4385 30.0299 39.125 30.0013 38.0434 30.0039C36.2566 30.0143 34.4698 30.0127 32.683 29.9989C32.3072 29.1955 30.4939 25.1256 29.9492 24.9494C29.7171 24.8744 29.4752 24.8618 29.2591 24.9876C29.0225 25.1253 28.8879 25.4238 28.7736 25.6614C28.1825 26.8908 27.7572 28.2423 27.2436 29.5101C26.4354 31.5051 25.4468 33.5541 24.8676 35.622C24.6149 34.51 24.0832 32.9376 23.7453 31.8169C22.5922 28.3513 21.706 24.4114 20.4827 21.1154C20.1778 20.9734 19.9039 20.8282 19.5733 20.9134C18.8358 21.3303 16.6367 28.7196 16.08 29.9734C13.0702 30.087 9.50838 30.0052 6.45743 30.0074C6.26691 28.467 6.0489 26.923 5.916 25.3767C5.80462 24.0807 5.42797 17.2399 5.96238 16.4003C6.14999 16.1056 6.50132 15.9186 6.81575 15.7925C7.61338 15.4723 8.46205 15.2603 9.28246 15.0063C11.3369 14.37 13.4023 13.7914 15.4622 13.1762C18.2548 12.3422 21.0432 11.2886 23.876 10.619Z" fill="#B4212E"/>
<path d="M24.7026 15.79C25.4259 15.78 26.1492 15.7849 26.8723 15.8049L26.895 18.0897C27.656 18.0876 28.417 18.1038 29.1772 18.1382L29.1831 20.2424C28.3851 20.2366 27.6713 20.2411 26.8742 20.2769C26.8394 21.0009 26.8485 21.8206 26.8324 22.5547C26.1163 22.5585 25.4002 22.553 24.6844 22.5382L24.6921 20.2481L22.3454 20.2342L22.3431 18.068C23.1254 18.0749 23.9076 18.0869 24.6897 18.1037C24.7022 17.3379 24.6985 16.5572 24.7026 15.79Z" fill="white"/>
<path d="M19.7584 24.4268C20.1577 25.4835 20.4352 26.5886 20.7818 27.6635C21.6674 30.4101 22.3934 33.2005 23.2456 35.9559C23.5051 36.7949 23.7836 37.854 24.2591 38.5846C24.5997 38.6998 24.8323 38.7412 25.1698 38.6025C25.8293 38.0636 29.0398 29.153 29.771 27.611C30.3695 28.8599 31.0982 30.4367 31.8098 31.5935C34.8979 31.6121 38.1367 31.5253 41.2012 31.6158C39.8119 39.2433 37.2509 43.919 30.7256 48.44C28.8862 49.7144 27.0842 50.7701 24.9839 51.5826C24.6799 51.7002 24.1827 51.9273 23.8781 51.9435C23.2071 51.5285 21.9222 51.1552 21.1551 50.7655C15.6521 47.9706 10.6001 43.6992 8.35602 37.7975C7.58787 35.7775 7.1933 33.697 6.70294 31.6088C9.99991 31.4865 13.7636 31.6205 17.1292 31.5753C17.6967 30.2181 18.1836 28.9191 18.6812 27.5332C19.0527 26.4987 19.4807 25.492 19.7584 24.4268Z" fill="#B4212E"/>
<path d="M29.7709 27.611C30.3695 28.8598 31.0981 30.4367 31.8098 31.5935C34.8978 31.612 38.1367 31.5252 41.2011 31.6157C39.8119 39.2432 37.2509 43.919 30.7256 48.4399C28.8861 49.7143 27.0842 50.7701 24.9839 51.5825C24.6798 51.7001 24.1826 51.9272 23.8781 51.9435C23.9782 50.589 23.8778 49.3853 23.9577 48.0733C24.6289 47.6733 25.7648 47.2303 26.6021 46.7606C29.5984 45.0799 33.0938 42.2517 34.757 39.1985C33.2039 39.2498 30.8688 39.2219 29.3192 39.1768C28.9391 39.6983 28.5792 40.3835 28.2591 40.9551C29.214 40.963 30.4819 40.9931 31.4052 40.8782C30.2113 42.2084 27.8602 44.2658 26.2473 45.0165C26.1226 44.8576 26.119 44.088 26.0241 43.7702C25.6548 42.5342 24.8896 41.8566 23.8283 41.2393C23.9653 40.6716 23.8421 39.8117 23.9254 39.2053C23.9831 38.7847 23.9582 38.8368 24.259 38.5846C24.5997 38.6997 24.8323 38.7411 25.1698 38.6025C25.8293 38.0636 29.0398 29.1529 29.7709 27.611Z" fill="#B4212E"/>
<path d="M31.7054 34.8617C33.36 34.8406 35.0149 34.851 36.669 34.8929C36.5366 35.492 36.4101 35.9657 36.2342 36.554C35.1358 36.5706 34.0003 36.5565 32.8987 36.5574C31.2367 36.5618 29.5747 36.5551 27.9128 36.5373C28.0846 35.9715 28.3228 35.4116 28.5451 34.8626C29.4563 34.9143 30.7654 34.867 31.7054 34.8617Z" fill="white"/>
<path d="M23.7372 46.0032C23.8187 45.9326 23.8983 45.8599 23.9761 45.7852C24.2303 45.5393 24.5244 45.0013 24.482 44.6898C24.1177 42.0126 18.6892 41.1841 16.9881 39.4301C16.4494 38.8747 16.0936 38.1715 16.1077 37.462C16.1212 36.7814 16.4892 36.072 16.9572 35.6264C18.0158 34.6184 19.9612 34.8511 21.3283 34.8968C21.541 35.4211 21.7151 36.0093 21.8875 36.552C21.2205 36.561 19.3331 36.4355 18.795 36.59C15.6374 37.4965 20.6228 39.6112 21.3019 39.9395C22.1576 40.3458 23.0002 40.7793 23.8283 41.2393C24.8896 41.8566 25.6548 42.5342 26.0241 43.7703C26.119 44.088 26.1226 44.8576 26.2472 45.0165C27.8602 44.2659 30.2113 42.2084 31.4052 40.8782C30.4819 40.9931 29.214 40.963 28.2591 40.9551C28.5792 40.3836 28.9391 39.6983 29.3192 39.1769C30.8688 39.2219 33.2039 39.2499 34.757 39.1985C33.0938 42.2517 29.5984 45.0799 26.6021 46.7606C25.7648 47.2303 24.6289 47.6733 23.9577 48.0733C23.6943 47.8868 21.917 47.1102 21.362 46.7895C19.0323 45.4432 17.5775 44.3082 15.6613 42.4975C16.4158 42.5755 17.2842 42.5112 18.0907 42.568C18.9743 43.1354 19.7566 43.8948 20.6714 44.4285C21.6452 44.9966 22.6533 45.6759 23.7372 46.0032Z" fill="white"/>
</g>
<defs>
<clipPath id="clip0_269_1672">
<rect width="142.898" height="67" fill="white"/>
</clipPath>
</defs>
</svg>
