<svg width="416" height="200" viewBox="0 0 416 200" fill="none" xmlns="http://www.w3.org/2000/svg">
<g clip-path="url(#clip0_265_1533)">
<path d="M408.659 0H7.34118C3.28676 0 0 3.16034 0 7.05882V192.941C0 196.84 3.28676 200 7.34118 200H408.659C412.713 200 416 196.84 416 192.941V7.05882C416 3.16034 412.713 0 408.659 0Z" fill="#F7EBEB"/>
<path d="M416 158.824H0V200H416V158.824Z" fill="#F7EBEB"/>
<path d="M40.9882 88.2353H20.1882C19.1746 88.2353 18.3529 89.0254 18.3529 90V157.059C18.3529 158.033 19.1746 158.824 20.1882 158.824H40.9882C42.0018 158.824 42.8235 158.033 42.8235 157.059V90C42.8235 89.0254 42.0018 88.2353 40.9882 88.2353Z" fill="#F5C5C5"/>
<path d="M65.4588 100H50.7765C49.7629 100 48.9412 100.79 48.9412 101.765V157.059C48.9412 158.033 49.7629 158.824 50.7765 158.824H65.4588C66.4724 158.824 67.2941 158.033 67.2941 157.059V101.765C67.2941 100.79 66.4724 100 65.4588 100Z" fill="#F5C5C5"/>
<path d="M386.635 94.1177H362.776C361.763 94.1177 360.941 94.9078 360.941 95.8824V157.059C360.941 158.033 361.763 158.824 362.776 158.824H386.635C387.649 158.824 388.471 158.033 388.471 157.059V95.8824C388.471 94.9078 387.649 94.1177 386.635 94.1177Z" fill="#F5C5C5"/>
<path d="M411.106 102.941H393.365C392.351 102.941 391.529 103.731 391.529 104.706V157.059C391.529 158.033 392.351 158.824 393.365 158.824H411.106C412.119 158.824 412.941 158.033 412.941 157.059V104.706C412.941 103.731 412.119 102.941 411.106 102.941Z" fill="#F5C5C5"/>
<path d="M27.5294 95.2941H23.8588C23.521 95.2941 23.2471 95.5575 23.2471 95.8824V99.4118C23.2471 99.7366 23.521 100 23.8588 100H27.5294C27.8673 100 28.1412 99.7366 28.1412 99.4118V95.8824C28.1412 95.5575 27.8673 95.2941 27.5294 95.2941Z" fill="#E8A0A0"/>
<path d="M36.0941 95.2941H32.4235C32.0857 95.2941 31.8118 95.5575 31.8118 95.8824V99.4118C31.8118 99.7366 32.0857 100 32.4235 100H36.0941C36.432 100 36.7059 99.7366 36.7059 99.4118V95.8824C36.7059 95.5575 36.432 95.2941 36.0941 95.2941Z" fill="#E8A0A0"/>
<path d="M27.5294 104.706H23.8588C23.521 104.706 23.2471 104.969 23.2471 105.294V108.824C23.2471 109.148 23.521 109.412 23.8588 109.412H27.5294C27.8673 109.412 28.1412 109.148 28.1412 108.824V105.294C28.1412 104.969 27.8673 104.706 27.5294 104.706Z" fill="#E8A0A0"/>
<path d="M36.0941 104.706H32.4235C32.0857 104.706 31.8118 104.969 31.8118 105.294V108.824C31.8118 109.148 32.0857 109.412 32.4235 109.412H36.0941C36.432 109.412 36.7059 109.148 36.7059 108.824V105.294C36.7059 104.969 36.432 104.706 36.0941 104.706Z" fill="#E8A0A0"/>
<path d="M370.118 101.176H366.447C366.109 101.176 365.835 101.44 365.835 101.765V105.294C365.835 105.619 366.109 105.882 366.447 105.882H370.118C370.456 105.882 370.729 105.619 370.729 105.294V101.765C370.729 101.44 370.456 101.176 370.118 101.176Z" fill="#E8A0A0"/>
<path d="M379.906 101.176H376.235C375.897 101.176 375.624 101.44 375.624 101.765V105.294C375.624 105.619 375.897 105.882 376.235 105.882H379.906C380.244 105.882 380.518 105.619 380.518 105.294V101.765C380.518 101.44 380.244 101.176 379.906 101.176Z" fill="#E8A0A0"/>
<path d="M370.118 110.588H366.447C366.109 110.588 365.835 110.852 365.835 111.176V114.706C365.835 115.031 366.109 115.294 366.447 115.294H370.118C370.456 115.294 370.729 115.031 370.729 114.706V111.176C370.729 110.852 370.456 110.588 370.118 110.588Z" fill="#E8A0A0"/>
<path d="M379.906 110.588H376.235C375.897 110.588 375.624 110.852 375.624 111.176V114.706C375.624 115.031 375.897 115.294 376.235 115.294H379.906C380.244 115.294 380.518 115.031 380.518 114.706V111.176C380.518 110.852 380.244 110.588 379.906 110.588Z" fill="#E8A0A0"/>
<path d="M104.612 70.5883H75.8588C74.5073 70.5883 73.4117 71.6417 73.4117 72.9412V156.471C73.4117 157.77 74.5073 158.824 75.8588 158.824H104.612C105.963 158.824 107.059 157.77 107.059 156.471V72.9412C107.059 71.6417 105.963 70.5883 104.612 70.5883Z" fill="#EE9090"/>
<path d="M135.2 82.353H115.624C114.272 82.353 113.176 83.4064 113.176 84.7059V156.471C113.176 157.77 114.272 158.824 115.624 158.824H135.2C136.551 158.824 137.647 157.77 137.647 156.471V84.7059C137.647 83.4064 136.551 82.353 135.2 82.353Z" fill="#EE9090"/>
<path d="M312.612 76.4706H283.859C282.507 76.4706 281.412 77.524 281.412 78.8235V156.471C281.412 157.77 282.507 158.824 283.859 158.824H312.612C313.963 158.824 315.059 157.77 315.059 156.471V78.8235C315.059 77.524 313.963 76.4706 312.612 76.4706Z" fill="#EE9090"/>
<path d="M343.2 88.2353H323.624C322.272 88.2353 321.176 89.2887 321.176 90.5882V156.471C321.176 157.77 322.272 158.824 323.624 158.824H343.2C344.551 158.824 345.647 157.77 345.647 156.471V90.5882C345.647 89.2887 344.551 88.2353 343.2 88.2353Z" fill="#EE9090"/>
<path d="M85.0353 77.6471H80.1412C79.8033 77.6471 79.5294 77.9105 79.5294 78.2353V82.9412C79.5294 83.2661 79.8033 83.5294 80.1412 83.5294H85.0353C85.3732 83.5294 85.6471 83.2661 85.6471 82.9412V78.2353C85.6471 77.9105 85.3732 77.6471 85.0353 77.6471Z" fill="#C45050"/>
<path d="M96.0471 77.6471H91.1529C90.8151 77.6471 90.5412 77.9105 90.5412 78.2353V82.9412C90.5412 83.2661 90.8151 83.5294 91.1529 83.5294H96.0471C96.3849 83.5294 96.6588 83.2661 96.6588 82.9412V78.2353C96.6588 77.9105 96.3849 77.6471 96.0471 77.6471Z" fill="#C45050"/>
<path d="M85.0353 88.2353H80.1412C79.8033 88.2353 79.5294 88.4987 79.5294 88.8235V93.5294C79.5294 93.8543 79.8033 94.1176 80.1412 94.1176H85.0353C85.3732 94.1176 85.6471 93.8543 85.6471 93.5294V88.8235C85.6471 88.4987 85.3732 88.2353 85.0353 88.2353Z" fill="#C45050"/>
<path d="M96.0471 88.2353H91.1529C90.8151 88.2353 90.5412 88.4987 90.5412 88.8235V93.5294C90.5412 93.8543 90.8151 94.1176 91.1529 94.1176H96.0471C96.3849 94.1176 96.6588 93.8543 96.6588 93.5294V88.8235C96.6588 88.4987 96.3849 88.2353 96.0471 88.2353Z" fill="#C45050"/>
<path d="M85.0353 98.8235H80.1412C79.8033 98.8235 79.5294 99.0869 79.5294 99.4118V104.118C79.5294 104.443 79.8033 104.706 80.1412 104.706H85.0353C85.3732 104.706 85.6471 104.443 85.6471 104.118V99.4118C85.6471 99.0869 85.3732 98.8235 85.0353 98.8235Z" fill="#C45050"/>
<path d="M96.0471 98.8235H91.1529C90.8151 98.8235 90.5412 99.0869 90.5412 99.4118V104.118C90.5412 104.443 90.8151 104.706 91.1529 104.706H96.0471C96.3849 104.706 96.6588 104.443 96.6588 104.118V99.4118C96.6588 99.0869 96.3849 98.8235 96.0471 98.8235Z" fill="#C45050"/>
<path d="M293.035 83.5294H288.141C287.803 83.5294 287.529 83.7928 287.529 84.1177V88.8235C287.529 89.1484 287.803 89.4118 288.141 89.4118H293.035C293.373 89.4118 293.647 89.1484 293.647 88.8235V84.1177C293.647 83.7928 293.373 83.5294 293.035 83.5294Z" fill="#C45050"/>
<path d="M304.047 83.5294H299.153C298.815 83.5294 298.541 83.7928 298.541 84.1177V88.8235C298.541 89.1484 298.815 89.4118 299.153 89.4118H304.047C304.385 89.4118 304.659 89.1484 304.659 88.8235V84.1177C304.659 83.7928 304.385 83.5294 304.047 83.5294Z" fill="#C45050"/>
<path d="M293.035 94.1177H288.141C287.803 94.1177 287.529 94.381 287.529 94.7059V99.4118C287.529 99.7367 287.803 100 288.141 100H293.035C293.373 100 293.647 99.7367 293.647 99.4118V94.7059C293.647 94.381 293.373 94.1177 293.035 94.1177Z" fill="#C45050"/>
<path d="M304.047 94.1177H299.153C298.815 94.1177 298.541 94.381 298.541 94.7059V99.4118C298.541 99.7367 298.815 100 299.153 100H304.047C304.385 100 304.659 99.7367 304.659 99.4118V94.7059C304.659 94.381 304.385 94.1177 304.047 94.1177Z" fill="#C45050"/>
<path d="M293.035 104.706H288.141C287.803 104.706 287.529 104.969 287.529 105.294V110C287.529 110.325 287.803 110.588 288.141 110.588H293.035C293.373 110.588 293.647 110.325 293.647 110V105.294C293.647 104.969 293.373 104.706 293.035 104.706Z" fill="#C45050"/>
<path d="M304.047 104.706H299.153C298.815 104.706 298.541 104.969 298.541 105.294V110C298.541 110.325 298.815 110.588 299.153 110.588H304.047C304.385 110.588 304.659 110.325 304.659 110V105.294C304.659 104.969 304.385 104.706 304.047 104.706Z" fill="#C45050"/>
<path d="M416 160H0V161.176H416V160Z" fill="#F0B0B0"/>
<path d="M96.6588 163.529H62.4C61.7242 163.529 61.1765 164.056 61.1765 164.706C61.1765 165.356 61.7242 165.882 62.4 165.882H96.6588C97.3345 165.882 97.8823 165.356 97.8823 164.706C97.8823 164.056 97.3345 163.529 96.6588 163.529Z" fill="#F0B0B0"/>
<path d="M170.071 163.529H135.812C135.136 163.529 134.588 164.056 134.588 164.706C134.588 165.356 135.136 165.882 135.812 165.882H170.071C170.746 165.882 171.294 165.356 171.294 164.706C171.294 164.056 170.746 163.529 170.071 163.529Z" fill="#F0B0B0"/>
<path d="M243.482 163.529H209.224C208.548 163.529 208 164.056 208 164.706C208 165.356 208.548 165.882 209.224 165.882H243.482C244.158 165.882 244.706 165.356 244.706 164.706C244.706 164.056 244.158 163.529 243.482 163.529Z" fill="#F0B0B0"/>
<path d="M316.894 163.529H282.635C281.96 163.529 281.412 164.056 281.412 164.706C281.412 165.356 281.96 165.882 282.635 165.882H316.894C317.57 165.882 318.118 165.356 318.118 164.706C318.118 164.056 317.57 163.529 316.894 163.529Z" fill="#F0B0B0"/>
<path d="M162.118 112.353C167.524 112.353 171.906 108.139 171.906 102.941C171.906 97.7432 167.524 93.5294 162.118 93.5294C156.712 93.5294 152.329 97.7432 152.329 102.941C152.329 108.139 156.712 112.353 162.118 112.353Z" fill="#D63031"/>
<path d="M162.118 97.6471C166.51 97.6471 170.071 94.2234 170.071 90C170.071 85.7767 166.51 82.353 162.118 82.353C157.725 82.353 154.165 85.7767 154.165 90C154.165 94.2234 157.725 97.6471 162.118 97.6471Z" fill="#FFD0A8"/>
<path d="M162.118 87.6471C166.51 87.6471 170.071 86.0669 170.071 84.1177C170.071 82.1684 166.51 80.5883 162.118 80.5883C157.725 80.5883 154.165 82.1684 154.165 84.1177C154.165 86.0669 157.725 87.6471 162.118 87.6471Z" fill="#D63031"/>
<path d="M157.224 107.059L151.718 117.647" stroke="#D63031" stroke-width="8" stroke-linecap="round"/>
<path d="M167.012 107.059L171.294 116.471" stroke="#B52424" stroke-width="8" stroke-linecap="round"/>
<path d="M159.671 112.353L154.776 129.412" stroke="#D63031" stroke-width="9" stroke-linecap="round"/>
<path d="M164.565 112.353L168.235 126.471" stroke="#B52424" stroke-width="9" stroke-linecap="round"/>
<path d="M152.941 132.941C155.644 132.941 157.835 131.888 157.835 130.588C157.835 129.289 155.644 128.235 152.941 128.235C150.238 128.235 148.047 129.289 148.047 130.588C148.047 131.888 150.238 132.941 152.941 132.941Z" fill="#C0392B"/>
<path d="M168.847 130C171.55 130 173.741 128.947 173.741 127.647C173.741 126.348 171.55 125.294 168.847 125.294C166.144 125.294 163.953 126.348 163.953 127.647C163.953 128.947 166.144 130 168.847 130Z" fill="#C0392B"/>
<path d="M171.906 100H167.012C165.998 100 165.176 100.79 165.176 101.765V108.824C165.176 109.798 165.998 110.588 167.012 110.588H171.906C172.92 110.588 173.741 109.798 173.741 108.824V101.765C173.741 100.79 172.92 100 171.906 100Z" fill="#E74C3C"/>
<path d="M165.176 101.176H164.565C164.227 101.176 163.953 101.44 163.953 101.765V108.824C163.953 109.148 164.227 109.412 164.565 109.412H165.176C165.514 109.412 165.788 109.148 165.788 108.824V101.765C165.788 101.44 165.514 101.176 165.176 101.176Z" fill="#C0392B"/>
<path d="M201.882 98.8235H188.424C185.721 98.8235 183.529 100.93 183.529 103.529V129.412C183.529 132.011 185.721 134.118 188.424 134.118H201.882C204.585 134.118 206.776 132.011 206.776 129.412V103.529C206.776 100.93 204.585 98.8235 201.882 98.8235Z" fill="#D63031"/>
<path d="M195.153 98.2353C200.897 98.2353 205.553 93.7581 205.553 88.2353C205.553 82.7124 200.897 78.2353 195.153 78.2353C189.409 78.2353 184.753 82.7124 184.753 88.2353C184.753 93.7581 189.409 98.2353 195.153 98.2353Z" fill="#FFD0A8"/>
<path d="M195.153 84.1176C199.883 84.1176 203.718 82.0107 203.718 79.4118C203.718 76.8128 199.883 74.7059 195.153 74.7059C190.423 74.7059 186.588 76.8128 186.588 79.4118C186.588 82.0107 190.423 84.1176 195.153 84.1176Z" fill="#8B4513"/>
<path d="M195.153 81.1765C197.518 81.1765 199.435 79.3329 199.435 77.0588C199.435 74.7847 197.518 72.9412 195.153 72.9412C192.788 72.9412 190.871 74.7847 190.871 77.0588C190.871 79.3329 192.788 81.1765 195.153 81.1765Z" fill="#8B4513"/>
<path d="M183.529 105.882L168.847 117.647" stroke="#D63031" stroke-width="9" stroke-linecap="round"/>
<path d="M206.776 105.882L215.341 116.471" stroke="#B52424" stroke-width="9" stroke-linecap="round"/>
<path d="M188.424 134.118L183.529 155.882" stroke="#D63031" stroke-width="10" stroke-linecap="round"/>
<path d="M201.882 134.118L205.553 154.118" stroke="#B52424" stroke-width="10" stroke-linecap="round"/>
<path d="M182.306 160C185.685 160 188.424 158.683 188.424 157.059C188.424 155.434 185.685 154.118 182.306 154.118C178.927 154.118 176.188 155.434 176.188 157.059C176.188 158.683 178.927 160 182.306 160Z" fill="#C0392B"/>
<path d="M206.165 158.235C209.543 158.235 212.282 156.918 212.282 155.294C212.282 153.67 209.543 152.353 206.165 152.353C202.786 152.353 200.047 153.67 200.047 155.294C200.047 156.918 202.786 158.235 206.165 158.235Z" fill="#C0392B"/>
<path d="M215.341 98.8235H206.776C205.425 98.8235 204.329 99.877 204.329 101.176V112.941C204.329 114.241 205.425 115.294 206.776 115.294H215.341C216.693 115.294 217.788 114.241 217.788 112.941V101.176C217.788 99.877 216.693 98.8235 215.341 98.8235Z" fill="#C0392B"/>
<path d="M204.941 101.176C204.941 100.527 204.393 100 203.718 100C203.042 100 202.494 100.527 202.494 101.176V111.765C202.494 112.414 203.042 112.941 203.718 112.941C204.393 112.941 204.941 112.414 204.941 111.765V101.176Z" fill="#922B21"/>
<path d="M213.506 102.941H209.835C209.497 102.941 209.224 103.205 209.224 103.529V103.824C209.224 104.148 209.497 104.412 209.835 104.412H213.506C213.844 104.412 214.118 104.148 214.118 103.824V103.529C214.118 103.205 213.844 102.941 213.506 102.941Z" fill="white"/>
<path d="M211.671 101.471H211.365C211.027 101.471 210.753 101.734 210.753 102.059V105C210.753 105.325 211.027 105.588 211.365 105.588H211.671C212.008 105.588 212.282 105.325 212.282 105V102.059C212.282 101.734 212.008 101.471 211.671 101.471Z" fill="white"/>
<path d="M244.706 95.2941H228.8C225.759 95.2941 223.294 97.6644 223.294 100.588V130C223.294 132.924 225.759 135.294 228.8 135.294H244.706C247.747 135.294 250.212 132.924 250.212 130V100.588C250.212 97.6644 247.747 95.2941 244.706 95.2941Z" fill="#C0392B"/>
<path d="M236.753 94.7058C243.172 94.7058 248.376 89.702 248.376 83.5294C248.376 77.3568 243.172 72.3529 236.753 72.3529C230.333 72.3529 225.129 77.3568 225.129 83.5294C225.129 89.702 230.333 94.7058 236.753 94.7058Z" fill="#FFD0A8"/>
<path d="M236.753 79.4117C242.159 79.4117 246.541 77.5682 246.541 75.2941C246.541 73.02 242.159 71.1765 236.753 71.1765C231.347 71.1765 226.965 73.02 226.965 75.2941C226.965 77.5682 231.347 79.4117 236.753 79.4117Z" fill="#4A2C0A"/>
<path d="M223.294 103.529L214.118 115.294" stroke="#A93226" stroke-width="10" stroke-linecap="round"/>
<path d="M250.212 103.529L261.835 95.2941" stroke="#C0392B" stroke-width="10" stroke-linecap="round"/>
<path d="M264.282 97.6471C266.31 97.6471 267.953 96.0669 267.953 94.1177C267.953 92.1684 266.31 90.5883 264.282 90.5883C262.255 90.5883 260.612 92.1684 260.612 94.1177C260.612 96.0669 262.255 97.6471 264.282 97.6471Z" fill="#FFD0A8"/>
<path d="M228.8 135.294L221.459 157.647" stroke="#C0392B" stroke-width="11" stroke-linecap="round"/>
<path d="M243.482 135.294L249.6 155.882" stroke="#A93226" stroke-width="11" stroke-linecap="round"/>
<path d="M220.235 161.765C224.29 161.765 227.576 160.448 227.576 158.824C227.576 157.199 224.29 155.882 220.235 155.882C216.181 155.882 212.894 157.199 212.894 158.824C212.894 160.448 216.181 161.765 220.235 161.765Z" fill="#922B21"/>
<path d="M250.212 160C254.266 160 257.553 158.683 257.553 157.059C257.553 155.434 254.266 154.118 250.212 154.118C246.157 154.118 242.871 155.434 242.871 157.059C242.871 158.683 246.157 160 250.212 160Z" fill="#922B21"/>
<path d="M262.447 92.9412H251.435C249.746 92.9412 248.376 94.258 248.376 95.8823V111.176C248.376 112.801 249.746 114.118 251.435 114.118H262.447C264.136 114.118 265.506 112.801 265.506 111.176V95.8823C265.506 94.258 264.136 92.9412 262.447 92.9412Z" fill="#922B21"/>
<path d="M247.765 95.2941H247.153C246.477 95.2941 245.929 95.8209 245.929 96.4706V110.588C245.929 111.238 246.477 111.765 247.153 111.765H247.765C248.44 111.765 248.988 111.238 248.988 110.588V96.4706C248.988 95.8209 248.44 95.2941 247.765 95.2941Z" fill="#7B241C"/>
<path d="M259.694 98.8235H254.188C253.681 98.8235 253.271 99.2186 253.271 99.7059C253.271 100.193 253.681 100.588 254.188 100.588H259.694C260.201 100.588 260.612 100.193 260.612 99.7059C260.612 99.2186 260.201 98.8235 259.694 98.8235Z" fill="white"/>
<path d="M257.859 96.7647C257.859 96.2774 257.448 95.8823 256.941 95.8823C256.434 95.8823 256.024 96.2774 256.024 96.7647V102.647C256.024 103.134 256.434 103.529 256.941 103.529C257.448 103.529 257.859 103.134 257.859 102.647V96.7647Z" fill="white"/>
<path d="M275.294 117.647H299.765M299.765 117.647L293.647 112.941M299.765 117.647L293.647 122.353" stroke="#D63031" stroke-width="3" stroke-linecap="round" stroke-linejoin="round"/>
<path d="M346.259 126.471H314.447C313.096 126.471 312 127.524 312 128.824V153.529C312 154.829 313.096 155.882 314.447 155.882H346.259C347.61 155.882 348.706 154.829 348.706 153.529V128.824C348.706 127.524 347.61 126.471 346.259 126.471Z" fill="#D63031"/>
<path d="M312 126.471L330.353 108.824L348.706 126.471H312Z" fill="#C0392B"/>
<path d="M329.741 137.059H323.624C322.948 137.059 322.4 137.586 322.4 138.235V148.824C322.4 149.473 322.948 150 323.624 150H329.741C330.417 150 330.965 149.473 330.965 148.824V138.235C330.965 137.586 330.417 137.059 329.741 137.059Z" fill="white"/>
<path d="M336.471 115.294H324.235C323.56 115.294 323.012 115.821 323.012 116.471V117.059C323.012 117.709 323.56 118.235 324.235 118.235H336.471C337.146 118.235 337.694 117.709 337.694 117.059V116.471C337.694 115.821 337.146 115.294 336.471 115.294Z" fill="white"/>
<path d="M330.659 110.588H330.047C329.371 110.588 328.824 111.115 328.824 111.765V122.353C328.824 123.003 329.371 123.529 330.047 123.529H330.659C331.335 123.529 331.882 123.003 331.882 122.353V111.765C331.882 111.115 331.335 110.588 330.659 110.588Z" fill="white"/>
<path d="M146.824 142.941C147.837 142.941 148.659 142.151 148.659 141.176C148.659 140.202 147.837 139.412 146.824 139.412C145.81 139.412 144.988 140.202 144.988 141.176C144.988 142.151 145.81 142.941 146.824 142.941Z" fill="#E8C8C8"/>
<path d="M140.706 149.412C141.382 149.412 141.929 148.885 141.929 148.235C141.929 147.586 141.382 147.059 140.706 147.059C140.03 147.059 139.482 147.586 139.482 148.235C139.482 148.885 140.03 149.412 140.706 149.412Z" fill="#E8C8C8"/>
<path d="M275.294 145.294C276.308 145.294 277.129 144.504 277.129 143.529C277.129 142.555 276.308 141.765 275.294 141.765C274.281 141.765 273.459 142.555 273.459 143.529C273.459 144.504 274.281 145.294 275.294 145.294Z" fill="#E8C8C8"/>
<path d="M281.412 151.765C282.087 151.765 282.635 151.238 282.635 150.588C282.635 149.938 282.087 149.412 281.412 149.412C280.736 149.412 280.188 149.938 280.188 150.588C280.188 151.238 280.736 151.765 281.412 151.765Z" fill="#E8C8C8"/>
<path d="M140.706 108.824H128.471" stroke="#E8C8C8" stroke-width="2.5" stroke-linecap="round"/>
<path d="M139.482 115.294H125.412" stroke="#E8C8C8" stroke-width="2" stroke-linecap="round"/>
<path d="M138.259 121.765H128.471" stroke="#E8C8C8" stroke-width="1.5" stroke-linecap="round"/>
</g>
<defs>
<clipPath id="clip0_265_1533">
<rect width="416" height="200" fill="white"/>
</clipPath>
</defs>
</svg>
